<svg width="300" height="300" viewBox="0 0 300 300" fill="none" xmlns="http://www.w3.org/2000/svg">
<g clip-path="url(#clip0_2_37)">
<rect width="300" height="300"/>
<path d="M49.2891 79.8L50.6891 78.4H80.7891V104.7C80.7891 107.5 80.8224 110 80.8891 112.2C80.9557 114.4 80.9891 116.867 80.9891 119.6V174.6C80.9891 177.2 80.9557 179.567 80.8891 181.7C80.8224 183.833 80.7891 186.267 80.7891 189V215.6H67.6891C61.9557 215.6 57.4557 213.933 54.1891 210.6C50.9224 207.267 49.2891 202.7 49.2891 196.9V79.8ZM124.989 133.3C125.722 135.233 126.222 137.467 126.489 140C126.756 142.533 126.889 144.667 126.889 146.4C126.889 148.2 126.756 150.3 126.489 152.7C126.222 155.1 125.722 157.333 124.989 159.4H94.4891C92.8224 159.4 90.4557 159.4 87.3891 159.4C84.3224 159.333 81.1557 159.267 77.8891 159.2C74.6891 159.133 72.0224 159.067 69.8891 159V133.7C72.0224 133.633 74.6891 133.567 77.8891 133.5C81.1557 133.433 84.3224 133.4 87.3891 133.4C90.4557 133.333 92.8224 133.3 94.4891 133.3H124.989ZM136.889 78.4C137.422 80.8 137.722 83.0667 137.789 85.2C137.922 87.2667 137.989 89.2 137.989 91C137.989 92.8 137.756 95.0333 137.289 97.7C136.889 100.3 136.256 102.8 135.389 105.2H94.4891C92.8224 105.2 90.4557 105.2 87.3891 105.2C84.3224 105.133 81.1557 105.067 77.8891 105C74.6891 104.933 72.0224 104.867 69.8891 104.8V78.4H136.889ZM141.889 188.8C141.889 197.6 140.522 204.267 137.789 208.8C135.056 213.333 129.422 215.6 120.889 215.6H69.8891V189.8C74.2224 189.6 78.3557 189.4 82.2891 189.2C86.2891 188.933 90.7224 188.8 95.5891 188.8H141.889ZM260.938 124.8C260.938 135.2 258.804 143.933 254.537 151C250.338 158 244.538 163.3 237.138 166.9C229.804 170.433 221.404 172.2 211.938 172.2H182.638V148.8C184.438 148.667 187.204 148.533 190.938 148.4C194.671 148.267 198.304 148.167 201.838 148.1C205.438 147.967 207.904 147.9 209.238 147.9C214.571 147.9 218.604 146.633 221.338 144.1C224.071 141.567 225.904 138.533 226.838 135C227.771 131.4 228.238 128 228.238 124.8C228.238 121.667 227.771 118.333 226.838 114.8C225.904 111.2 224.071 108.133 221.338 105.6C218.604 103.067 214.571 101.8 209.238 101.8C207.238 101.8 205.238 101.8 203.238 101.8C201.304 101.733 198.971 101.667 196.238 101.6V215C193.571 215.467 190.738 215.767 187.738 215.9C184.804 216.1 182.271 216.2 180.138 216.2C178.204 216.2 175.671 216.1 172.538 215.9C169.471 215.767 166.671 215.467 164.138 215V79.4L165.538 78C174.071 77.8 182.038 77.6333 189.438 77.5C196.904 77.3 204.404 77.2 211.938 77.2C221.404 77.2 229.804 78.9333 237.138 82.4C244.538 85.8 250.338 91.0333 254.537 98.1C258.804 105.1 260.938 114 260.938 124.8Z" fill="url(#paint0_linear_2_37)"/>
</g>
<defs>
<linearGradient id="paint0_linear_2_37" x1="34" y1="131" x2="266.998" y2="134.161" gradientUnits="userSpaceOnUse">
<stop stop-color="#2098EF"/>
<stop offset="1" stop-color="#4E2DD1"/>
</linearGradient>
<clipPath id="clip0_2_37">
<rect width="300" height="300" fill="white"/>
</clipPath>
</defs>
</svg>
